<svg width="32" height="32" viewBox="0 0 32 32" fill="none" xmlns="http://www.w3.org/2000/svg">
<path d="M17.3333 5.33337C21.0783 5.33337 22.951 5.33317 24.2962 6.23181C24.8785 6.6209 25.3788 7.12118 25.7679 7.70349C26.6667 9.04864 26.6663 10.9214 26.6663 14.6664C26.6663 18.4113 26.6665 20.2841 25.7679 21.6293C25.3788 22.2116 24.8785 22.7118 24.2962 23.101C22.951 23.9998 21.0785 24.0004 17.3333 24.0004H14.6663C13.8896 24.0004 13.1934 23.9976 12.5657 23.9896L12.4681 24.2377L10.013 26.4379C9.19475 27.1706 7.89102 26.6551 7.79523 25.5609L7.57257 23.0092C7.0464 22.6343 6.59118 22.1672 6.23175 21.6293C5.33326 20.2841 5.33331 18.4111 5.33331 14.6664C5.33331 10.9214 5.33299 9.04864 6.23175 7.70349C6.62086 7.12114 7.12108 6.62092 7.70343 6.23181C9.04858 5.33305 10.9214 5.33337 14.6663 5.33337H17.3333ZM10.6663 13.3334C9.93021 13.3336 9.33349 13.9303 9.33331 14.6664C9.33331 15.4026 9.9301 16.0002 10.6663 16.0004C11.4027 16.0004 12.0003 15.4028 12.0003 14.6664C12.0001 13.9302 11.4026 13.3334 10.6663 13.3334ZM16.0003 13.3334C15.264 13.3334 14.6665 13.9302 14.6663 14.6664C14.6663 15.4028 15.2639 16.0004 16.0003 16.0004C16.7365 16.0002 17.3333 15.4027 17.3333 14.6664C17.3331 13.9303 16.7364 13.3335 16.0003 13.3334ZM21.3333 13.3334C20.5971 13.3334 20.0005 13.9302 20.0003 14.6664C20.0003 15.4028 20.5969 16.0004 21.3333 16.0004C22.0697 16.0004 22.6663 15.4028 22.6663 14.6664C22.6661 13.9302 22.0696 13.3334 21.3333 13.3334Z" fill="#00A9EC"/>
</svg>
