<svg width="24" height="24" viewBox="0 0 24 24" fill="none" xmlns="http://www.w3.org/2000/svg">
<path d="M15 17.6396L15.5 17.6397V17.6396H15ZM14.6582 18.1143L14.8163 18.5886L14.8163 18.5886L14.6582 18.1143ZM9.6582 19.7803L9.50014 19.3059L9.50009 19.3059L9.6582 19.7803ZM9 19.3066H8.5V19.307L9 19.3066ZM8.70711 11.7071L9.06066 11.3536L8.70711 11.7071ZM15.2929 11.7071L14.9393 11.3536L15.2929 11.7071ZM19.7071 7.29289L20.0607 7.64645L19.7071 7.29289ZM19.7071 7.29289L19.3536 6.93934L14.9393 11.3536L15.2929 11.7071L15.6464 12.0607L20.0607 7.64645L19.7071 7.29289ZM15 12.4142H14.5V17.6396H15H15.5V12.4142H15ZM15 17.6396L14.5 17.6396L14.5001 17.6399L14.6582 18.1143L14.8163 18.5886C15.2251 18.4523 15.5 18.0696 15.5 17.6397L15 17.6396ZM14.6582 18.1143L14.5001 17.6399L9.50014 19.3059L9.6582 19.7803L9.81626 20.2546L14.8163 18.5886L14.6582 18.1143ZM9.6582 19.7803L9.50009 19.3059L9.5 19.3063L9 19.3066L8.5 19.307C8.50046 19.9898 9.16961 20.4702 9.81632 20.2546L9.6582 19.7803ZM9 19.3066H9.5V12.4142H9H8.5V19.3066H9ZM8.70711 11.7071L9.06066 11.3536L4.64645 6.93934L4.29289 7.29289L3.93934 7.64645L8.35355 12.0607L8.70711 11.7071ZM4 6.58579H4.5V5H4H3.5V6.58579H4ZM5 4V4.5H19V4V3.5H5V4ZM20 5H19.5V6.58579H20H20.5V5H20ZM19 4V4.5C19.2761 4.5 19.5 4.72386 19.5 5H20H20.5C20.5 4.17157 19.8284 3.5 19 3.5V4ZM4 5H4.5C4.5 4.72386 4.72386 4.5 5 4.5V4V3.5C4.17157 3.5 3.5 4.17157 3.5 5H4ZM4.29289 7.29289L4.64645 6.93934C4.55268 6.84557 4.5 6.71839 4.5 6.58579H4H3.5C3.5 6.98361 3.65804 7.36514 3.93934 7.64645L4.29289 7.29289ZM9 12.4142H9.5C9.5 12.0164 9.34196 11.6349 9.06066 11.3536L8.70711 11.7071L8.35355 12.0607C8.44732 12.1544 8.5 12.2816 8.5 12.4142H9ZM15.2929 11.7071L14.9393 11.3536C14.658 11.6349 14.5 12.0164 14.5 12.4142H15H15.5C15.5 12.2816 15.5527 12.1544 15.6464 12.0607L15.2929 11.7071ZM19.7071 7.29289L20.0607 7.64645C20.342 7.36514 20.5 6.98361 20.5 6.58579H20H19.5C19.5 6.71839 19.4473 6.84557 19.3536 6.93934L19.7071 7.29289Z" fill="#777777"/>
</svg>
