<svg width="24" height="24" viewBox="0 0 24 24" fill="none" xmlns="http://www.w3.org/2000/svg">
<path fill-rule="evenodd" clip-rule="evenodd" d="M17.8205 9.94444C19.3816 10.725 20.1621 11.1156 20.1621 11.7336C20.1619 12.3515 19.3814 12.7423 17.8205 13.5228L9.7944 17.5355C7.57595 18.6447 6.46612 19.1995 5.95641 18.69C5.44676 18.1804 6.00167 17.0707 7.11098 14.8521L8.17095 12.7328L14.3271 12.7335C14.8793 12.7335 15.3268 12.2858 15.327 11.7336C15.327 11.1813 14.8793 10.7337 14.3271 10.7337H8.17026L7.11098 8.61516C6.00175 6.39668 5.44694 5.28687 5.95641 4.77717C6.46607 4.26752 7.57577 4.82243 9.7944 5.93174L17.8205 9.94444Z" fill="#333333"/>
</svg>
