<svg width="32" height="32" viewBox="0 0 32 32" fill="none" xmlns="http://www.w3.org/2000/svg">
<path d="M24.2832 7.32227L24.6548 7.65675L24.9796 7.2959L24.6285 6.96064L24.2832 7.32227ZM14.4912 18.2021L14.1912 18.6021L14.557 18.8765L14.8629 18.5366L14.4912 18.2021ZM10.1338 14.9336L10.4338 14.5336L10.4338 14.5336L10.1338 14.9336ZM8.2666 15.2002L7.8666 14.9002L7.86656 14.9003L8.2666 15.2002ZM8.5332 17.0674L8.23316 17.4674L8.23327 17.4674L8.5332 17.0674ZM12.8916 20.335L13.1915 19.9349L13.1915 19.9349L12.8916 20.335ZM16.4736 19.9863L16.8452 20.3209L16.8453 20.3208L16.4736 19.9863ZM26.0117 9.38672L26.4287 9.11075L26.0721 8.57209L25.64 9.05227L26.0117 9.38672ZM16 4V4.5C19.0793 4.5 21.8729 5.7122 23.9379 7.6839L24.2832 7.32227L24.6285 6.96064C22.3855 4.81899 19.3474 3.5 16 3.5V4ZM24.2832 7.32227L23.9116 6.98778L14.1196 17.8677L14.4912 18.2021L14.8629 18.5366L24.6548 7.65675L24.2832 7.32227ZM14.4912 18.2021L14.7912 17.8022L10.4338 14.5336L10.1338 14.9336L9.83376 15.3336L14.1912 18.6021L14.4912 18.2021ZM10.1338 14.9336L10.4338 14.5336C9.62385 13.9261 8.47417 14.0901 7.8666 14.9002L8.2666 15.2002L8.6666 15.5002C8.94269 15.1321 9.46552 15.0574 9.83379 15.3336L10.1338 14.9336ZM8.2666 15.2002L7.86656 14.9003C7.25935 15.7101 7.42325 16.8598 8.23316 17.4674L8.5332 17.0674L8.83324 16.6674C8.46525 16.3914 8.39053 15.8684 8.66664 15.5001L8.2666 15.2002ZM8.5332 17.0674L8.23327 17.4674L12.5917 20.735L12.8916 20.335L13.1915 19.9349L8.83313 16.6673L8.5332 17.0674ZM12.8916 20.335L12.5917 20.735C13.9029 21.7181 15.7484 21.5393 16.8452 20.3209L16.4736 19.9863L16.102 19.6518C15.3519 20.4851 14.0891 20.6078 13.1915 19.9349L12.8916 20.335ZM16.4736 19.9863L16.8453 20.3208L26.3834 9.72117L26.0117 9.38672L25.64 9.05227L16.102 19.6519L16.4736 19.9863ZM26.0117 9.38672L25.5948 9.66269C26.7977 11.4801 27.5 13.657 27.5 16H28H28.5C28.5 13.454 27.7362 11.0862 26.4287 9.11075L26.0117 9.38672ZM28 16H27.5C27.5 22.3513 22.3513 27.5 16 27.5V28V28.5C22.9036 28.5 28.5 22.9036 28.5 16H28ZM16 28V27.5C9.64873 27.5 4.5 22.3513 4.5 16H4H3.5C3.5 22.9036 9.09644 28.5 16 28.5V28ZM4 16H4.5C4.5 9.64873 9.64873 4.5 16 4.5V4V3.5C9.09644 3.5 3.5 9.09644 3.5 16H4Z" fill="#333333"/>
</svg>
