<svg width="32" height="32" viewBox="0 0 32 32" fill="none" xmlns="http://www.w3.org/2000/svg">
<path d="M24.2962 6.23181L24.574 5.81608L24.574 5.81605L24.2962 6.23181ZM25.7679 7.70349L26.1836 7.42571L26.1836 7.4257L25.7679 7.70349ZM26.6663 14.6664H27.1663H26.6663ZM25.7679 21.6293L26.1836 21.9071L26.1836 21.907L25.7679 21.6293ZM24.2962 23.101L24.574 23.5167L24.574 23.5167L24.2962 23.101ZM14.6663 24.0004V24.5004V24.0004ZM12.5657 23.9896L12.5721 23.4897C12.3644 23.487 12.1766 23.6131 12.1005 23.8065L12.5657 23.9896ZM12.4681 24.2377L12.8018 24.61C12.8598 24.5581 12.9048 24.4933 12.9333 24.4208L12.4681 24.2377ZM10.013 26.4379L10.3466 26.8103L10.3467 26.8102L10.013 26.4379ZM7.79523 25.5609L7.29712 25.6044L7.29713 25.6045L7.79523 25.5609ZM7.57257 23.0092L8.07068 22.9657C8.05795 22.8198 7.98194 22.6869 7.86271 22.6019L7.57257 23.0092ZM6.23175 21.6293L5.81597 21.907L5.81602 21.9071L6.23175 21.6293ZM5.33331 14.6664H4.83331H5.33331ZM6.23175 7.70349L5.81602 7.42571L5.81601 7.42571L6.23175 7.70349ZM7.70343 6.23181L7.42565 5.81607L7.42565 5.81608L7.70343 6.23181ZM14.6663 5.33337V4.83337V5.33337ZM10.6663 13.3334V12.8334H10.6662L10.6663 13.3334ZM9.33331 14.6664L8.83331 14.6663V14.6664H9.33331ZM10.6663 16.0004L10.6662 16.5004H10.6663V16.0004ZM12.0003 14.6664H12.5003V14.6663L12.0003 14.6664ZM16.0003 13.3334L16.0004 12.8334H16.0003V13.3334ZM14.6663 14.6664L14.1663 14.6663V14.6664H14.6663ZM16.0003 16.0004V16.5004H16.0004L16.0003 16.0004ZM17.3333 14.6664H17.8333V14.6663L17.3333 14.6664ZM21.3333 13.3334V12.8334H21.3333L21.3333 13.3334ZM20.0003 14.6664L19.5003 14.6663V14.6664H20.0003ZM21.3333 16.0004L21.3333 16.5004H21.3333V16.0004ZM22.6663 14.6664H23.1663V14.6663L22.6663 14.6664ZM17.3333 5.33337V5.83337C19.2162 5.83337 20.5908 5.83393 21.6641 5.94304C22.7291 6.0513 23.4417 6.26229 24.0185 6.64757L24.2962 6.23181L24.574 5.81605C23.8055 5.30269 22.9092 5.06446 21.7653 4.94817C20.6296 4.83272 19.1954 4.83337 17.3333 4.83337V5.33337ZM24.2962 6.23181L24.0184 6.64755C24.5461 7.00016 24.9995 7.45356 25.3522 7.98128L25.7679 7.70349L26.1836 7.4257C25.758 6.78881 25.2109 6.24165 24.574 5.81608L24.2962 6.23181ZM25.7679 7.70349L25.3521 7.98128C25.7375 8.55797 25.9485 9.27061 26.0567 10.3355C26.1658 11.4088 26.1663 12.7834 26.1663 14.6664H26.6663H27.1663C27.1663 12.8043 27.167 11.37 27.0516 10.2344C26.9353 9.09046 26.6971 8.19416 26.1836 7.42571L25.7679 7.70349ZM26.6663 14.6664H26.1663C26.1663 16.5492 26.1658 17.9239 26.0566 18.9972C25.9484 20.0621 25.7374 20.7748 25.3521 21.3515L25.7679 21.6293L26.1836 21.907C26.697 21.1386 26.9352 20.2423 27.0515 19.0983C27.167 17.9627 27.1663 16.5284 27.1663 14.6664H26.6663ZM25.7679 21.6293L25.3521 21.3515C24.9995 21.8792 24.5462 22.3326 24.0184 22.6852L24.2962 23.101L24.574 23.5167C25.2109 23.0911 25.758 22.544 26.1836 21.9071L25.7679 21.6293ZM24.2962 23.101L24.0184 22.6852C23.4416 23.0706 22.729 23.2818 21.6641 23.3903C20.5909 23.4996 19.2163 23.5004 17.3333 23.5004V24.0004V24.5004C19.1956 24.5004 20.6298 24.5008 21.7654 24.3851C22.9094 24.2686 23.8056 24.0301 24.574 23.5167L24.2962 23.101ZM17.3333 24.0004V23.5004H14.6663V24.0004V24.5004H17.3333V24.0004ZM14.6663 24.0004V23.5004C13.8905 23.5004 13.1967 23.4976 12.5721 23.4897L12.5657 23.9896L12.5593 24.4896C13.1901 24.4976 13.8886 24.5004 14.6663 24.5004V24.0004ZM12.5657 23.9896L12.1005 23.8065L12.0028 24.0545L12.4681 24.2377L12.9333 24.4208L13.031 24.1728L12.5657 23.9896ZM12.4681 24.2377L12.1344 23.8653L9.6793 26.0655L10.013 26.4379L10.3467 26.8102L12.8018 24.61L12.4681 24.2377ZM10.013 26.4379L9.67945 26.0654C9.16801 26.5234 8.35319 26.2011 8.29332 25.5173L7.79523 25.5609L7.29713 25.6045C7.42885 27.1091 9.22148 27.8178 10.3466 26.8103L10.013 26.4379ZM7.79523 25.5609L8.29333 25.5175L8.07068 22.9657L7.57257 23.0092L7.07446 23.0526L7.29712 25.6044L7.79523 25.5609ZM7.57257 23.0092L7.86271 22.6019C7.38533 22.2618 6.97285 21.8384 6.64749 21.3515L6.23175 21.6293L5.81602 21.9071C6.20951 22.496 6.70747 23.0067 7.28243 23.4164L7.57257 23.0092ZM6.23175 21.6293L6.64753 21.3516C6.26231 20.7748 6.05132 20.0621 5.94303 18.9971C5.8339 17.9238 5.83331 16.5492 5.83331 14.6664H5.33331H4.83331C4.83331 16.5284 4.8327 17.9626 4.94816 19.0983C5.06448 20.2422 5.3027 21.1386 5.81597 21.907L6.23175 21.6293ZM5.33331 14.6664H5.83331C5.83331 12.7835 5.83384 11.4089 5.94293 10.3356C6.05118 9.27062 6.26217 8.55797 6.64749 7.98127L6.23175 7.70349L5.81601 7.42571C5.30257 8.19417 5.06434 9.09047 4.94806 10.2344C4.83263 11.3701 4.83331 12.8043 4.83331 14.6664H5.33331ZM6.23175 7.70349L6.64749 7.98128C7.00012 7.45352 7.45346 7.00018 7.98122 6.64755L7.70343 6.23181L7.42565 5.81608C6.7887 6.24167 6.24161 6.78876 5.81602 7.42571L6.23175 7.70349ZM7.70343 6.23181L7.98121 6.64755C8.55791 6.26223 9.27056 6.05124 10.3355 5.94299C11.4088 5.8339 12.7834 5.83337 14.6663 5.83337V5.33337V4.83337C12.8043 4.83337 11.37 4.83269 10.2344 4.94812C9.09041 5.0644 8.1941 5.30263 7.42565 5.81607L7.70343 6.23181ZM14.6663 5.33337V5.83337H17.3333V5.33337V4.83337H14.6663V5.33337ZM10.6663 13.3334L10.6662 12.8334C9.65405 12.8336 8.83356 13.6541 8.83331 14.6663L9.33331 14.6664L9.83331 14.6665C9.83342 14.2064 10.2064 13.8335 10.6664 13.8334L10.6663 13.3334ZM9.33331 14.6664H8.83331C8.83331 15.6784 9.65358 16.5001 10.6662 16.5004L10.6663 16.0004L10.6664 15.5004C10.2066 15.5002 9.83331 15.1269 9.83331 14.6664H9.33331ZM10.6663 16.0004V16.5004C11.6788 16.5004 12.5003 15.6789 12.5003 14.6664H12.0003H11.5003C11.5003 15.1266 11.1266 15.5004 10.6663 15.5004V16.0004ZM12.0003 14.6664L12.5003 14.6663C12.5001 13.6536 11.6784 12.8334 10.6663 12.8334V13.3334V13.8334C11.1268 13.8334 11.5002 14.2067 11.5003 14.6665L12.0003 14.6664ZM16.0003 13.3334V12.8334C14.9882 12.8334 14.1666 13.6536 14.1663 14.6663L14.6663 14.6664L15.1663 14.6665C15.1664 14.2067 15.5398 13.8334 16.0003 13.8334V13.3334ZM14.6663 14.6664H14.1663C14.1663 15.6789 14.9878 16.5004 16.0003 16.5004V16.0004V15.5004C15.5401 15.5004 15.1663 15.1266 15.1663 14.6664H14.6663ZM16.0003 16.0004L16.0004 16.5004C17.0131 16.5001 17.8333 15.6784 17.8333 14.6664H17.3333H16.8333C16.8333 15.1269 16.46 15.5003 16.0002 15.5004L16.0003 16.0004ZM17.3333 14.6664L17.8333 14.6663C17.8331 13.6541 17.0126 12.8336 16.0004 12.8334L16.0003 13.3334L16.0002 13.8334C16.4603 13.8335 16.8332 14.2064 16.8333 14.6665L17.3333 14.6664ZM21.3333 13.3334L21.3333 12.8334C20.3208 12.8334 19.5006 13.6541 19.5003 14.6663L20.0003 14.6664L20.5003 14.6665C20.5004 14.2062 20.8733 13.8334 21.3333 13.8334L21.3333 13.3334ZM20.0003 14.6664H19.5003C19.5003 15.6784 20.3203 16.5004 21.3333 16.5004L21.3333 16.0004L21.3333 15.5004C20.8736 15.5004 20.5003 15.1271 20.5003 14.6664H20.0003ZM21.3333 16.0004V16.5004C22.3463 16.5004 23.1663 15.6784 23.1663 14.6664H22.6663H22.1663C22.1663 15.1271 21.7931 15.5004 21.3333 15.5004V16.0004ZM22.6663 14.6664L23.1663 14.6663C23.1661 13.6541 22.3458 12.8334 21.3333 12.8334V13.3334V13.8334C21.7933 13.8334 22.1662 14.2062 22.1663 14.6665L22.6663 14.6664Z" fill="#333333"/>
</svg>
