<svg width="32" height="32" viewBox="0 0 32 32" fill="none" xmlns="http://www.w3.org/2000/svg">
<path d="M17.9997 21.333V28H13.9997V21.333H17.9997ZM15.9997 6.60156C17.4794 6.60156 18.7223 7.66639 21.2067 9.7959L22.5397 10.9385C23.9142 12.1166 24.6015 12.7063 24.9675 13.502C25.3333 14.2975 25.3337 15.2026 25.3337 17.0127V22.667C25.3337 25.1807 25.3333 26.4377 24.5524 27.2188C23.8437 27.9275 22.7429 27.992 20.6667 27.998V21.333C20.6665 19.8604 19.4723 18.667 17.9997 18.667H13.9997C12.5272 18.6672 11.3339 19.8605 11.3337 21.333V27.998C9.25731 27.992 8.1567 27.9275 7.44794 27.2188C6.66693 26.4377 6.66669 25.1809 6.66669 22.667V17.0127C6.66669 15.2025 6.66705 14.2975 7.0329 13.502C7.39885 12.7063 8.08612 12.1166 9.46063 10.9385L10.7936 9.7959C13.2779 7.66655 14.5201 6.60172 15.9997 6.60156Z" fill="#00A9EC"/>
</svg>
