<svg width="32" height="32" viewBox="0 0 32 32" fill="none" xmlns="http://www.w3.org/2000/svg">
<path d="M17.9997 21.333H18.4997V20.833H17.9997V21.333ZM17.9997 28V28.5H18.4997V28H17.9997ZM13.9997 28H13.4997V28.5H13.9997V28ZM13.9997 21.333V20.833H13.4997V21.333H13.9997ZM15.9997 6.60156V6.10156H15.9996L15.9997 6.60156ZM21.2067 9.7959L20.8813 10.1755V10.1755L21.2067 9.7959ZM22.5397 10.9385L22.8651 10.5588V10.5588L22.5397 10.9385ZM24.9675 13.502L25.4218 13.2931L25.4217 13.293L24.9675 13.502ZM25.3337 17.0127H25.8337H25.3337ZM25.3337 22.667H25.8337H25.3337ZM24.5524 27.2188L24.906 27.5723L24.906 27.5723L24.5524 27.2188ZM20.6667 27.998H20.1667V28.4995L20.6681 28.498L20.6667 27.998ZM20.6667 21.333H21.1667V21.3329L20.6667 21.333ZM17.9997 18.667L17.9997 18.167H17.9997V18.667ZM13.9997 18.667V18.167H13.9996L13.9997 18.667ZM11.3337 21.333L10.8337 21.3329V21.333H11.3337ZM11.3337 27.998L11.3322 28.498L11.8337 28.4995V27.998H11.3337ZM7.44794 27.2188L7.09438 27.5723L7.09439 27.5723L7.44794 27.2188ZM6.66669 22.667H6.16669H6.66669ZM6.66669 17.0127H6.16669H6.66669ZM7.0329 13.502L6.57864 13.293L6.57862 13.2931L7.0329 13.502ZM9.46063 10.9385L9.13524 10.5588V10.5588L9.46063 10.9385ZM10.7936 9.7959L11.119 10.1755V10.1755L10.7936 9.7959ZM17.9997 21.333H17.4997V28H17.9997H18.4997V21.333H17.9997ZM17.9997 28V27.5H13.9997V28V28.5H17.9997V28ZM13.9997 28H14.4997V21.333H13.9997H13.4997V28H13.9997ZM13.9997 21.333V21.833H17.9997V21.333V20.833H13.9997V21.333ZM15.9997 6.60156V7.10156C16.6044 7.10156 17.1886 7.31403 17.9509 7.81741C18.7249 8.32849 19.6293 9.10238 20.8813 10.1755L21.2067 9.7959L21.5321 9.41627C20.2997 8.35991 19.3405 7.53663 18.502 6.98293C17.6518 6.42151 16.8747 6.10156 15.9997 6.10156V6.60156ZM21.2067 9.7959L20.8813 10.1755L22.2143 11.3181L22.5397 10.9385L22.8651 10.5588L21.5321 9.41627L21.2067 9.7959ZM22.5397 10.9385L22.2143 11.3181C23.6234 12.5259 24.2037 13.0379 24.5132 13.7109L24.9675 13.502L25.4217 13.293C24.9994 12.3747 24.2051 11.7074 22.8651 10.5588L22.5397 10.9385ZM24.9675 13.502L24.5132 13.7108C24.8226 14.3838 24.8337 15.1571 24.8337 17.0127H25.3337H25.8337C25.8337 15.2482 25.8439 14.2113 25.4218 13.2931L24.9675 13.502ZM25.3337 17.0127H24.8337V22.667H25.3337H25.8337V17.0127H25.3337ZM25.3337 22.667H24.8337C24.8337 23.938 24.8325 24.841 24.7404 25.526C24.6501 26.1966 24.481 26.5831 24.1988 26.8652L24.5524 27.2188L24.906 27.5723C25.4048 27.0734 25.6263 26.4409 25.7314 25.6593C25.8347 24.8922 25.8337 23.9098 25.8337 22.667H25.3337ZM24.5524 27.2188L24.1989 26.8652C23.9423 27.1217 23.6003 27.2839 23.0389 27.3789C22.463 27.4764 21.7101 27.495 20.6652 27.498L20.6667 27.998L20.6681 28.498C21.6994 28.495 22.535 28.4784 23.2058 28.3649C23.8911 28.2489 24.4538 28.0245 24.906 27.5723L24.5524 27.2188ZM20.6667 27.998H21.1667V21.333H20.6667H20.1667V27.998H20.6667ZM20.6667 21.333L21.1667 21.3329C21.1665 19.5841 19.7483 18.167 17.9997 18.167L17.9997 18.667L17.9997 19.167C19.1964 19.167 20.1665 20.1367 20.1667 21.3331L20.6667 21.333ZM17.9997 18.667V18.167H13.9997V18.667V19.167H17.9997V18.667ZM13.9997 18.667L13.9996 18.167C12.251 18.1672 10.8339 19.5844 10.8337 21.3329L11.3337 21.333L11.8337 21.3331C11.8338 20.1367 12.8033 19.1671 13.9998 19.167L13.9997 18.667ZM11.3337 21.333H10.8337V27.998H11.3337H11.8337V21.333H11.3337ZM11.3337 27.998L11.3351 27.498C10.2901 27.495 9.53725 27.4764 8.96138 27.3789C8.40009 27.2839 8.05806 27.1218 7.80148 26.8652L7.44794 27.2188L7.09439 27.5723C7.54658 28.0245 8.10924 28.2489 8.79453 28.3649C9.46525 28.4784 10.3009 28.495 11.3322 28.498L11.3337 27.998ZM7.44794 27.2188L7.80149 26.8652C7.51934 26.583 7.35019 26.1966 7.25997 25.526C7.16781 24.841 7.16669 23.938 7.16669 22.667H6.66669H6.16669C6.16669 23.9098 6.16569 24.8922 6.2689 25.6594C6.37405 26.4409 6.59553 27.0734 7.09438 27.5723L7.44794 27.2188ZM6.66669 22.667H7.16669V17.0127H6.66669H6.16669V22.667H6.66669ZM6.66669 17.0127H7.16669C7.16669 15.157 7.17773 14.3838 7.48717 13.7108L7.0329 13.502L6.57862 13.2931C6.15638 14.2113 6.16669 15.2481 6.16669 17.0127H6.66669ZM7.0329 13.502L7.48715 13.7109C7.79669 13.0379 8.37692 12.5259 9.78603 11.3181L9.46063 10.9385L9.13524 10.5588C7.79531 11.7074 7.00101 12.3747 6.57864 13.293L7.0329 13.502ZM9.46063 10.9385L9.78603 11.3181L11.119 10.1755L10.7936 9.7959L10.4682 9.41627L9.13524 10.5588L9.46063 10.9385ZM10.7936 9.7959L11.119 10.1755C12.371 9.10244 13.2752 8.32859 14.049 7.81749C14.8111 7.31412 15.3951 7.10163 15.9997 7.10156L15.9997 6.60156L15.9996 6.10156C15.1247 6.10165 14.3478 6.42166 13.4979 6.98308C12.6596 7.53677 11.7005 8.36001 10.4682 9.41627L10.7936 9.7959Z" fill="#333333"/>
</svg>
