<svg width="24" height="24" viewBox="0 0 24 24" fill="none" xmlns="http://www.w3.org/2000/svg">
<path d="M3.5 15.4998L5.41016 13.5906C6.7558 12.2449 7.42839 11.572 8.15723 11.5105C8.52416 11.4795 8.89249 11.5506 9.22168 11.7156C9.87545 12.0434 10.2504 12.9177 11 14.6667L11.0537 14.7917C11.3795 15.5518 11.5424 15.9321 11.8105 16.0984C12.0191 16.2275 12.2682 16.2755 12.5098 16.2332C12.8207 16.1786 13.1139 15.8859 13.6992 15.3005L13.8125 15.1873C14.5336 14.4662 14.8948 14.1058 15.3037 13.9539C15.753 13.787 16.247 13.787 16.6963 13.9539C17.1052 14.1058 17.4664 14.4662 18.1875 15.1873L18.9395 15.9392C19.6186 16.6183 20.5396 16.9998 21.5 16.9998V4.19019C21.9994 5.39174 22 7.16164 22 9.99976V13.9998C22 17.771 21.9997 19.6573 20.8281 20.8289C19.6565 22.0001 17.7709 21.9998 14 21.9998H10C6.22913 21.9998 4.34347 22.0001 3.17188 20.8289C2.0003 19.6573 2 17.771 2 13.9998V9.99976C2 6.22872 2.00033 4.34317 3.17188 3.17163C3.27545 3.06807 3.38445 2.97351 3.5 2.88745V15.4998Z" fill="#333333"/>
<path d="M10 3H14C15.9139 3 17.2487 3.00229 18.2559 3.1377C19.2342 3.26923 19.7521 3.50989 20.1211 3.87891C20.4901 4.24792 20.7308 4.7658 20.8623 5.74414C20.9977 6.75127 21 8.08611 21 10V14C21 15.9139 20.9977 17.2487 20.8623 18.2559C20.7308 19.2342 20.4901 19.7521 20.1211 20.1211C19.7521 20.4901 19.2342 20.7308 18.2559 20.8623C17.2487 20.9977 15.9139 21 14 21H10C8.08611 21 6.75127 20.9977 5.74414 20.8623C4.7658 20.7308 4.24792 20.4901 3.87891 20.1211C3.50989 19.7521 3.26923 19.2342 3.1377 18.2559C3.00229 17.2487 3 15.9139 3 14V10C3 8.08611 3.00229 6.75127 3.1377 5.74414C3.26923 4.7658 3.50989 4.24792 3.87891 3.87891C4.24792 3.50989 4.7658 3.26923 5.74414 3.1377C6.75127 3.00229 8.08611 3 10 3Z" stroke="#333333" stroke-width="2"/>
<circle cx="15" cy="9" r="2" fill="#333333"/>
</svg>
