<svg width="32" height="32" viewBox="0 0 32 32" fill="none" xmlns="http://www.w3.org/2000/svg">
<path d="M4 16C4 9.37258 9.37258 4 16 4C22.6274 4 28 9.37258 28 16C28 22.6274 22.6274 28 16 28C9.37258 28 4 22.6274 4 16Z" fill="#F1F1F5"/>
<circle cx="16" cy="13.3333" r="5.33333" fill="#333333"/>
<path fill-rule="evenodd" clip-rule="evenodd" d="M16.0003 20C19.6098 20.0001 22.7409 21.7563 24.2935 24.3263C24.3711 24.4547 24.3475 24.6193 24.2384 24.7223C22.0891 26.7533 19.1908 27.9999 16.0003 28C12.8099 28 9.91167 26.7532 7.7623 24.7224C7.6532 24.6193 7.62956 24.4547 7.70717 24.3263C9.25992 21.7564 12.3909 20 16.0003 20Z" fill="#333333"/>
</svg>
