<svg width="32" height="32" viewBox="0 0 32 32" fill="none" xmlns="http://www.w3.org/2000/svg">
<path d="M16 4C17.655 4 19.2316 4.33544 20.666 4.94141C20.0324 5.97791 19.667 7.19619 19.667 8.5C19.667 12.2739 22.7261 15.333 26.5 15.333C27.0051 15.333 27.4968 15.2758 27.9707 15.1719C27.9894 15.4455 28 15.7216 28 16C28 22.6274 22.6274 28 16 28C9.37258 28 4 22.6274 4 16C4 9.37258 9.37258 4 16 4Z" fill="#00A9EC"/>
<path fill-rule="evenodd" clip-rule="evenodd" d="M16.0003 20C19.6098 20.0001 22.7409 21.7563 24.2935 24.3263C24.3711 24.4547 24.3475 24.6193 24.2384 24.7223C22.0891 26.7533 19.1908 27.9999 16.0003 28C12.8099 28 9.91167 26.7532 7.7623 24.7224C7.6532 24.6193 7.62956 24.4547 7.70717 24.3263C9.25992 21.7564 12.3909 20 16.0003 20Z" fill="white"/>
<circle cx="16" cy="13.3333" r="5.33333" fill="white"/>
<path d="M26.667 5.33301C28.5078 5.33321 30 6.82616 30 8.66699C29.9998 10.5077 28.5077 11.9998 26.667 12C24.8261 12 23.3332 10.5078 23.333 8.66699C23.333 6.82604 24.826 5.33301 26.667 5.33301Z" fill="#FF1B1B" stroke="#FF1B1B" stroke-width="1.33333"/>
</svg>
