<svg width="32" height="32" viewBox="0 0 32 32" fill="none" xmlns="http://www.w3.org/2000/svg">
<path d="M20.666 4.94141L21.0926 5.20218L21.3954 4.70677L20.8606 4.48082L20.666 4.94141ZM20.4189 11.6152L20.7906 11.9497L21.0211 11.6935L20.8638 11.3869L20.4189 11.6152ZM14.4912 18.2021L14.1912 18.6021L14.557 18.8765L14.8629 18.5366L14.4912 18.2021ZM10.1338 14.9336L10.4338 14.5336L10.4338 14.5336L10.1338 14.9336ZM8.2666 15.2002L7.8666 14.9002L7.86656 14.9003L8.2666 15.2002ZM8.5332 17.0674L8.23316 17.4674L8.23327 17.4674L8.5332 17.0674ZM12.8916 20.335L13.1915 19.9349L13.1915 19.9349L12.8916 20.335ZM16.4736 19.9863L16.8452 20.3209L16.8453 20.3208L16.4736 19.9863ZM22.1035 13.7295L22.4255 13.3469L22.0554 13.0355L21.7318 13.3951L22.1035 13.7295ZM27.9707 15.1719L28.4695 15.1379L28.4301 14.5592L27.8635 14.6835L27.9707 15.1719ZM16 4V4.5C17.5869 4.5 19.0974 4.82154 20.4714 5.40199L20.666 4.94141L20.8606 4.48082C19.3658 3.84935 17.7232 3.5 16 3.5V4ZM20.666 4.94141L20.2394 4.68064C19.5593 5.79333 19.167 7.10148 19.167 8.5H19.667H20.167C20.167 7.29089 20.5056 6.16249 21.0926 5.20218L20.666 4.94141ZM19.667 8.5H19.167C19.167 9.70435 19.4594 10.8408 19.9741 11.8436L20.4189 11.6152L20.8638 11.3869C20.4193 10.521 20.167 9.54068 20.167 8.5H19.667ZM20.4189 11.6152L20.0473 11.2808L14.1195 17.8677L14.4912 18.2021L14.8629 18.5366L20.7906 11.9497L20.4189 11.6152ZM14.4912 18.2021L14.7912 17.8022L10.4338 14.5336L10.1338 14.9336L9.83376 15.3336L14.1912 18.6021L14.4912 18.2021ZM10.1338 14.9336L10.4338 14.5336C9.62385 13.9261 8.47417 14.0901 7.8666 14.9002L8.2666 15.2002L8.6666 15.5002C8.94269 15.1321 9.46552 15.0574 9.83379 15.3336L10.1338 14.9336ZM8.2666 15.2002L7.86656 14.9003C7.25935 15.7101 7.42325 16.8598 8.23316 17.4674L8.5332 17.0674L8.83324 16.6674C8.46525 16.3914 8.39053 15.8684 8.66664 15.5001L8.2666 15.2002ZM8.5332 17.0674L8.23327 17.4674L12.5917 20.735L12.8916 20.335L13.1915 19.9349L8.83313 16.6673L8.5332 17.0674ZM12.8916 20.335L12.5917 20.735C13.9029 21.7181 15.7484 21.5393 16.8452 20.3209L16.4736 19.9863L16.102 19.6518C15.3519 20.4851 14.0891 20.6078 13.1915 19.9349L12.8916 20.335ZM16.4736 19.9863L16.8453 20.3208L22.4752 14.0639L22.1035 13.7295L21.7318 13.3951L16.1019 19.6519L16.4736 19.9863ZM22.1035 13.7295L21.7816 14.112C23.0565 15.185 24.7028 15.833 26.5 15.833V15.333V14.833C24.9475 14.833 23.5273 14.2742 22.4255 13.3469L22.1035 13.7295ZM26.5 15.333V15.833C27.043 15.833 27.5707 15.7715 28.0779 15.6603L27.9707 15.1719L27.8635 14.6835C27.423 14.7801 26.9672 14.833 26.5 14.833V15.333ZM27.9707 15.1719L27.4719 15.2059C27.4898 15.4697 27.5 15.7343 27.5 16H28H28.5C28.5 15.7089 28.4889 15.4214 28.4695 15.1379L27.9707 15.1719ZM28 16H27.5C27.5 22.3513 22.3513 27.5 16 27.5V28V28.5C22.9036 28.5 28.5 22.9036 28.5 16H28ZM16 28V27.5C9.64873 27.5 4.5 22.3513 4.5 16H4H3.5C3.5 22.9036 9.09644 28.5 16 28.5V28ZM4 16H4.5C4.5 9.64873 9.64873 4.5 16 4.5V4V3.5C9.09644 3.5 3.5 9.09644 3.5 16H4Z" fill="#333333"/>
<path d="M26.667 5.33301C28.5078 5.33321 30 6.82616 30 8.66699C29.9998 10.5077 28.5077 11.9998 26.667 12C24.8261 12 23.3332 10.5078 23.333 8.66699C23.333 6.82604 24.826 5.33301 26.667 5.33301Z" fill="#FF1B1B" stroke="#FF1B1B" stroke-width="1.33333"/>
</svg>
