<svg width="32" height="32" viewBox="0 0 32 32" fill="none" xmlns="http://www.w3.org/2000/svg">
<path d="M16 4C17.655 4 19.2316 4.33544 20.666 4.94141C20.0324 5.97791 19.667 7.19619 19.667 8.5C19.667 9.62252 19.9394 10.6809 20.4189 11.6152L14.4912 18.2021L10.1338 14.9336C9.54469 14.4918 8.70843 14.6111 8.2666 15.2002C7.82494 15.7893 7.94425 16.6256 8.5332 17.0674L12.8916 20.335C13.996 21.1629 15.5501 21.0122 16.4736 19.9863L22.1035 13.7295C23.2919 14.7296 24.8251 15.333 26.5 15.333C27.0051 15.333 27.4968 15.2758 27.9707 15.1719C27.9894 15.4455 28 15.7216 28 16C28 22.6274 22.6274 28 16 28C9.37258 28 4 22.6274 4 16C4 9.37258 9.37258 4 16 4Z" fill="#00A9EC"/>
<path d="M26.667 5.33301C28.5078 5.33321 30 6.82616 30 8.66699C29.9998 10.5077 28.5077 11.9998 26.667 12C24.8261 12 23.3332 10.5078 23.333 8.66699C23.333 6.82604 24.826 5.33301 26.667 5.33301Z" fill="#FF1B1B" stroke="#FF1B1B" stroke-width="1.33333"/>
</svg>
